<svg xmlns="http://www.w3.org/2000/svg" width="100.998" height="71.008" viewBox="0 0 100.998 71.008"><path d="M114.167,132.7c.157-.069.17-.189.214-.289q2.225-4.582,4.444-9.165c.578-1.2,1.113-2.4,1.76-3.583a1.307,1.307,0,0,0-.145-1.634c-.314-.358-.591-.723-.893-1.113l-.277-.358a.107.107,0,0,1,0-.157h0l.27-.214,1.219-.924.233-.163a.3.3,0,0,1,.371,0,2.654,2.654,0,0,1,.258.207l.974,1.006a1.439,1.439,0,0,1,.427,1.364,7.115,7.115,0,0,1-.226.735c-.346.905-.779,1.76-1.188,2.627l-6.675,13.772-.1.226a.459.459,0,0,1-.453.277H112.5a.44.44,0,0,1-.434-.314c-.163-.44-.333-.9-.49-1.345l-5.029-13.979c-.245-.691-.534-1.37-.8-2.055a2.514,2.514,0,0,0-1.219-1.358c-.214-.126-.434-.214-.629-.327a.937.937,0,0,1-.377-.289.226.226,0,0,1,0-.22.207.207,0,0,1,.189-.126h4.865a.383.383,0,0,1,.289.157.264.264,0,0,1,0,.377h0a3.573,3.573,0,0,1-.314.3.886.886,0,0,0-.321,1.2L112.5,128.32c.534,1.351,1.113,2.722,1.59,4.079A2.512,2.512,0,0,0,114.167,132.7Z" transform="translate(-49.836 -64.506)"/><path d="M87.99,121.8a7.593,7.593,0,0,0-4.7-5.443,12.433,12.433,0,0,0-3.872-.911c-1.923-.157-3.847-.157-5.305-.17-2.049,0-3.614.1-5.186.082a.941.941,0,0,0-.189,0,.3.3,0,0,0-.283.314.308.308,0,0,0,.05.151.88.88,0,0,0,.358.321l.4.17a1.006,1.006,0,0,1,.566.679,2.478,2.478,0,0,1,0,.629v15.714a2.509,2.509,0,0,1,0,.434,1.037,1.037,0,0,1-.691.9l-.39.195a.742.742,0,0,0-.277.264.3.3,0,0,0,.082.415.277.277,0,0,0,.182.05,2.023,2.023,0,0,0,.39,0,9.432,9.432,0,0,1,1.685,0H76.33a16.093,16.093,0,0,0,3.011-.251,11.446,11.446,0,0,0,5.305-2.363,9.473,9.473,0,0,0,3.627-6.631A12.86,12.86,0,0,0,87.99,121.8ZM85.25,126.45a9.485,9.485,0,0,1-.541,2.514,7.625,7.625,0,0,1-5.343,4.9,10.61,10.61,0,0,1-2.7.4,17.648,17.648,0,0,1-3.5-.214c-.629-.107-.547,0-.547-.629V117.21c0-.522,0-.534.534-.629a22.59,22.59,0,0,1,4.563-.176,11.1,11.1,0,0,1,2.678.522,6.914,6.914,0,0,1,4.727,5.531A14.218,14.218,0,0,1,85.25,126.45Z" transform="translate(-37.02 -64.597)"/><path d="M52.292,134.889a1.257,1.257,0,0,0-.446-.289c-.258-.138-.509-.258-.754-.4a2.257,2.257,0,0,1-.993-1.113c-.132-.321-.289-.629-.421-.968L42.392,115.3c-.176-.415-.119-.39-.6-.39H41.7a.4.4,0,0,0-.478.289c-.251.629-.534,1.213-.8,1.81q-2.753,6.242-5.563,12.477c-.522,1.182-1.043,2.351-1.559,3.526a2.407,2.407,0,0,1-1.113,1.226l-.629.3a3.614,3.614,0,0,0-.377.207.924.924,0,0,0-.2.214.2.2,0,0,0,.069.277h3.834a.453.453,0,0,0,.358-.522.308.308,0,0,0,0-.069,1.025,1.025,0,0,0-.119-.214,1.094,1.094,0,0,1-.119-1.056l.132-.352c.629-1.458,1.213-2.9,1.823-4.35,0-.057.05-.119.069-.176a.321.321,0,0,1,.352-.258h7.882a.22.22,0,0,1,.22.145l.088.176c.629,1.477,1.257,2.973,1.923,4.45a1.729,1.729,0,0,1,.126.358.88.88,0,0,1-.314.943,3.434,3.434,0,0,0-.352.321.264.264,0,0,0,0,.377h0a.522.522,0,0,0,.333.182H52.1a.226.226,0,0,0,.189-.126.3.3,0,0,0,0-.182ZM44.749,127.1h-7.1a.823.823,0,0,1,0-.176c1.169-2.791,2.326-5.563,3.507-8.41a.427.427,0,0,1,.189.264q1.452,3.338,2.879,6.675c.17.39.346.792.509,1.188a.748.748,0,0,1,.113.358.233.233,0,0,1-.163.132Z" transform="translate(-23.396 -64.456)"/><path d="M153.624,134.969a.628.628,0,0,0-.314-.289l-.629-.327a2.772,2.772,0,0,1-1.358-1.433c-2.514-5.839-5.029-11.654-7.543-17.543-.283-.629-.126-.522-.849-.528h-.113a.233.233,0,0,0-.233.145l-.126.264-3.589,8.222-4.224,9.5a2.514,2.514,0,0,1-1.175,1.314l-.629.321a1.069,1.069,0,0,0-.4.264.277.277,0,0,0-.082.27c0,.113.126.132.226.145h3.6a.434.434,0,0,0,.377-.484.526.526,0,0,0,0-.094,1.52,1.52,0,0,0-.132-.245,1.1,1.1,0,0,1-.107-1.025l.163-.446.943-2.225c.314-.729.629-1.465.924-2.219a.321.321,0,0,1,.333-.226h7.788a.289.289,0,0,1,.321.233v.138c.629,1.433,1.257,2.879,1.886,4.325a1.257,1.257,0,0,1,.145.4.874.874,0,0,1-.358,1.006,2.094,2.094,0,0,0-.321.3.283.283,0,0,0,0,.415.685.685,0,0,0,.534.163h4.45a.721.721,0,0,0,.233,0,.214.214,0,0,0,.3-.057A.22.22,0,0,0,153.624,134.969Zm-7.618-7.857h-7.034a.821.821,0,0,1,0-.176c1.113-2.759,2.307-5.563,3.463-8.285a.138.138,0,0,1,.088-.113c.233.39,3.545,8.171,3.633,8.517A.17.17,0,0,1,146.005,127.111Z" transform="translate(-60.301 -64.435)"/><path d="M112.271,47.447h0c.538-1.113,1.013-2.257,1.438-3.413.538-.157,2.869-.629,6.219,1.741-.481-1.641-1.976-3.4-5.516-3.891a28.512,28.512,0,0,0,1.121-5.814C103.55,65.952,76.4,66.1,61.737,61.8,35.378,54.154,18.93,62.885,18.93,62.885c25-4.174,36.6,3.143,53.523,4a64.874,64.874,0,0,0,10.938-.321h-.158a9.232,9.232,0,0,1,1.862,5.557c.462-.629,1.9-2.288.405-5.827h0a44.273,44.273,0,0,0,6.181-1.433h0s1.9,1.113,2.723,5.814a6.179,6.179,0,0,0-.918-6.418h0a36.6,36.6,0,0,0,4.585-2h0a10.819,10.819,0,0,1,4.5,5.374c1.469-3.583-2.356-6.613-2.356-6.613h0a33.4,33.4,0,0,0,4.4-3.231h0a6.854,6.854,0,0,1,3.889,6.078c2.027-4.4-2.533-7.4-2.533-7.4h0c.342-.346.671-.691.994-1.043h0a7.272,7.272,0,0,1,6.466,3.036,6.671,6.671,0,0,0-4.148-5.877h0a33.715,33.715,0,0,0,2.331-3.677c4.237-.446,5.605,2.143,5.877,2.778C117.933,47.711,112.271,47.447,112.271,47.447Z" transform="translate(-18.93 -36.07)"/></svg>